<?xml version="1.0" encoding="UTF-8"?>
<svg version="1.1" xmlns="http://www.w3.org/2000/svg" width="500" height="500">
<path d="M0 0 C0.90045044 -0.00705963 1.80090088 -0.01411926 2.7286377 -0.02139282 C40.56271231 -0.2507174 40.56271231 -0.2507174 57.20703125 3.203125 C58.69759033 3.50911621 58.69759033 3.50911621 60.21826172 3.82128906 C82.220508 8.47437301 102.98300327 15.38050853 123.20703125 25.203125 C123.92810059 25.55068848 124.64916992 25.89825195 125.39208984 26.25634766 C183.08785103 54.41594201 228.273258 107.04791745 249.3125 167.4375 C256.90979679 190.17968485 262.28374061 213.92910166 262.41015625 237.99609375 C262.41721588 238.89654419 262.42427551 239.79699463 262.43154907 240.72473145 C262.66087365 278.55880606 262.66087365 278.55880606 259.20703125 295.203125 C258.90104004 296.69368408 258.90104004 296.69368408 258.58886719 298.21435547 C253.93578324 320.21660175 247.02964772 340.97909702 237.20703125 361.203125 C236.85946777 361.92419434 236.5119043 362.64526367 236.15380859 363.38818359 C207.99421424 421.08394478 155.3622388 466.26935175 94.97265625 487.30859375 C72.2304714 494.90589054 48.48105459 500.27983436 24.4140625 500.40625 C23.06338684 500.41683945 23.06338684 500.41683945 21.6854248 500.42764282 C-16.14864981 500.6569674 -16.14864981 500.6569674 -32.79296875 497.203125 C-34.28352783 496.89713379 -34.28352783 496.89713379 -35.80419922 496.58496094 C-57.8064455 491.93187699 -78.56894077 485.02574147 -98.79296875 475.203125 C-99.51403809 474.85556152 -100.23510742 474.50799805 -100.97802734 474.14990234 C-158.67378853 445.99030799 -203.8591955 393.35833255 -224.8984375 332.96875 C-232.49573429 310.22656515 -237.86967811 286.47714834 -237.99609375 262.41015625 C-238.00315338 261.50970581 -238.01021301 260.60925537 -238.01748657 259.68151855 C-238.24681115 221.84744394 -238.24681115 221.84744394 -234.79296875 205.203125 C-234.48697754 203.71256592 -234.48697754 203.71256592 -234.17480469 202.19189453 C-229.52172074 180.18964825 -222.61558522 159.42715298 -212.79296875 139.203125 C-212.44540527 138.48205566 -212.0978418 137.76098633 -211.73974609 137.01806641 C-183.58015174 79.32230522 -130.9481763 34.13689825 -70.55859375 13.09765625 C-47.8164089 5.50035946 -24.06699209 0.12641564 0 0 Z " fill="#FFFFFF" transform="translate(237.79296875,-0.203125)"/>
<path d="M0 0 C0.81082031 -0.00386719 1.62164062 -0.00773437 2.45703125 -0.01171875 C3.23691406 -0.01042969 4.01679688 -0.00914063 4.8203125 -0.0078125 C5.52687988 -0.00668457 6.23344727 -0.00555664 6.96142578 -0.00439453 C8.875 0.125 8.875 0.125 11.875 1.125 C12.43795505 8.87193368 10.68282238 15.23866194 8.30444336 22.58984375 C7.69241828 24.4847722 7.10293947 26.38693415 6.51367188 28.2890625 C4.1262039 35.83425056 1.34982346 43.01386141 -2.125 50.125 C-2.785 50.125 -3.445 50.125 -4.125 50.125 C-4.47304688 51.18847656 -4.47304688 51.18847656 -4.828125 52.2734375 C-10.27210836 64.24364188 -26.01322403 76.81278367 -38.15625 81.5703125 C-40.125 82.125 -40.125 82.125 -44.0625 82.625 C-47.18414969 82.78192046 -47.18414969 82.78192046 -48.5625 84.9375 C-49.29102736 87.39421798 -49.29102736 87.39421798 -49.125 91.125 C-42.02772572 91.23308032 -35.16405044 91.06354006 -28.125 90.125 C-30.75922517 95.70118693 -33.66431611 100.58470903 -37.375 105.5 C-37.85807617 106.148479 -38.34115234 106.79695801 -38.83886719 107.46508789 C-44.436887 114.94302589 -50.23913985 122.19205612 -56.45703125 129.1640625 C-58.7627159 131.87472689 -60.81967556 134.74481176 -62.86328125 137.65625 C-63.27964844 138.1409375 -63.69601562 138.625625 -64.125 139.125 C-64.785 139.125 -65.445 139.125 -66.125 139.125 C-66.33125 139.66125 -66.5375 140.1975 -66.75 140.75 C-68.65750426 144.04478009 -71.17319384 146.71863628 -74.125 149.125 C-74.785 149.125 -75.445 149.125 -76.125 149.125 C-76.21523438 149.71667969 -76.30546875 150.30835938 -76.3984375 150.91796875 C-77.31000347 153.6869729 -78.49691153 154.6150211 -80.75 156.4375 C-83.51398092 158.71086216 -85.8712371 160.9681472 -88.1875 163.6875 C-93.28064823 168.84994276 -100.42060449 170.80547738 -107.125 173.125 C-107.80852539 173.36524902 -108.49205078 173.60549805 -109.19628906 173.85302734 C-121.38922767 178.11853429 -121.38922767 178.11853429 -127.125 179.125 C-126.135 182.59 -126.135 182.59 -125.125 186.125 C-119.185 185.795 -113.245 185.465 -107.125 185.125 C-109.6 187.6 -109.6 187.6 -112.125 190.125 C-112.92679687 190.93839844 -113.72859375 191.75179687 -114.5546875 192.58984375 C-126.38355694 204.55098489 -137.16768118 213.35640566 -154 216.8125 C-162.91177495 218.70322096 -171.60698985 221.21471748 -180.32763672 223.83862305 C-181.3126416 224.13422119 -182.29764648 224.42981934 -183.3125 224.734375 C-184.19292969 225.00217773 -185.07335937 225.26998047 -185.98046875 225.54589844 C-188.125 226.125 -188.125 226.125 -190.125 226.125 C-189.46899798 224.45410695 -188.80011617 222.78826197 -188.125 221.125 C-187.82464844 220.3721875 -187.52429688 219.619375 -187.21484375 218.84375 C-184.66612707 213.93639043 -182.00449206 211.67555102 -176.69140625 209.96777344 C-173.69605508 209.13374676 -170.688145 208.39219204 -167.65625 207.703125 C-164.96890903 207.08934959 -162.29788168 206.42383572 -159.625 205.75 C-151.80779375 203.8077862 -144.1448938 201.97798292 -136.125 201.125 C-136.125 199.475 -136.125 197.825 -136.125 196.125 C-149.88363512 198.791147 -163.57957175 201.51154 -177.125 205.125 C-173.72690939 199.12999462 -170.0247814 193.38356844 -166.0625 187.75 C-165.44592529 186.85837158 -165.44592529 186.85837158 -164.81689453 185.94873047 C-160.69155039 180.15880258 -156.81230989 177.0039858 -149.9765625 175.01953125 C-148.22085938 174.50422852 -148.22085938 174.50422852 -146.4296875 173.97851562 C-145.21539062 173.63498047 -144.00109375 173.29144531 -142.75 172.9375 C-141.5434375 172.58236328 -140.336875 172.22722656 -139.09375 171.86132812 C-133.42632031 170.22026469 -127.98348908 168.8931663 -122.125 168.125 C-120.78797706 167.80678854 -119.45467391 167.47264375 -118.125 167.125 C-115.54311914 166.59489042 -112.96067486 166.07328076 -110.375 165.5625 C-109.32892578 165.35463867 -109.32892578 165.35463867 -108.26171875 165.14257812 C-106.54965277 164.80251023 -104.83734971 164.46363632 -103.125 164.125 C-103.125 162.805 -103.125 161.485 -103.125 160.125 C-115.96081306 161.64617423 -128.1877536 164.26276342 -140.62841797 167.78735352 C-141.6907666 168.08826904 -142.75311523 168.38918457 -143.84765625 168.69921875 C-145.26703491 169.11046997 -145.26703491 169.11046997 -146.71508789 169.5300293 C-149.125 170.125 -149.125 170.125 -152.125 170.125 C-150.65293416 165.47500379 -147.93451546 162.27007989 -144.75 158.6875 C-141.99116475 155.55614823 -139.38529925 152.52043544 -137.0859375 149.02734375 C-133.2834263 143.39932419 -129.93988315 140.6279343 -123.4375 138.625 C-122.46127686 138.32045898 -122.46127686 138.32045898 -121.46533203 138.00976562 C-119.35740571 137.36117291 -117.24291264 136.74014141 -115.125 136.125 C-114.42648926 135.91875 -113.72797852 135.7125 -113.00830078 135.5 C-103.18101246 132.61558609 -93.26866583 130.13732357 -83.29248047 127.82421875 C-78.52510933 126.71702979 -73.81787183 125.51571574 -69.125 124.125 C-68.795 122.805 -68.465 121.485 -68.125 120.125 C-78.40489964 120.45211935 -87.55482602 122.2308562 -97.4375 125.0625 C-100.01579506 125.78406296 -102.59588457 126.49901141 -105.17578125 127.21484375 C-106.37025879 127.5485498 -107.56473633 127.88225586 -108.79541016 128.22607422 C-112.88322557 129.32970645 -116.9804218 130.26173453 -121.125 131.125 C-118.36570211 126.75935028 -115.31830914 122.99024625 -111.75 119.25 C-108.6145072 115.93835017 -105.73860856 112.68973891 -103.3125 108.8125 C-95.17881688 97.83202779 -75.62273111 94.16544405 -63.42480469 89.95361328 C-61.13879343 89.18087857 -61.13879343 89.18087857 -59.125 88.125 C-58.47286708 86.10036745 -58.47286708 86.10036745 -58.125 84.125 C-58.90214355 84.3422876 -59.67928711 84.5595752 -60.47998047 84.78344727 C-63.98463756 85.75888655 -67.49222889 86.72332208 -71 87.6875 C-72.22332031 88.02974609 -73.44664062 88.37199219 -74.70703125 88.72460938 C-75.87363281 89.04365234 -77.04023438 89.36269531 -78.2421875 89.69140625 C-79.32097168 89.98990479 -80.39975586 90.28840332 -81.51123047 90.59594727 C-84.125 91.125 -84.125 91.125 -86.125 90.125 C-79.125 83.125 -79.125 83.125 -76.84960938 80.90112305 C-74.95077107 78.96638377 -73.20600852 77.06742088 -71.4675293 75.00390625 C-62.88771328 65.16685441 -54.41257986 62.08016734 -41.9375 59.125 C-39.40149333 58.49564016 -36.87030197 57.85353617 -34.34367371 57.1875 C-32.78814268 56.78014661 -31.22661369 56.39485889 -29.65937805 56.03515625 C-27.28546707 55.48025972 -27.28546707 55.48025972 -24.125 54.125 C-22.54716024 51.61893933 -22.54716024 51.61893933 -22.125 49.125 C-25.10430406 49.7493506 -28.08344461 50.37446491 -31.0625 51 C-31.89330078 51.17402344 -32.72410156 51.34804687 -33.58007812 51.52734375 C-39.10405817 52.68802438 -44.61690357 53.89109747 -50.125 55.125 C-46.34160313 51.29200804 -42.45634703 47.59124971 -38.5 43.9375 C-37.92765625 43.40447266 -37.3553125 42.87144531 -36.765625 42.32226562 C-30.0616647 36.125 -30.0616647 36.125 -26.125 36.125 C-25.795 35.135 -25.465 34.145 -25.125 33.125 C-23.47134594 32.10362543 -21.80123498 31.10887706 -20.125 30.125 C-18.85279021 29.17486864 -17.60347742 28.19353707 -16.375 27.1875 C-15.78203125 26.70410156 -15.1890625 26.22070312 -14.578125 25.72265625 C-12.90763868 23.88601941 -12.5226117 22.54729234 -12.125 20.125 C-13.775 20.125 -15.425 20.125 -17.125 20.125 C-17.125 20.785 -17.125 21.445 -17.125 22.125 C-18.115 22.125 -19.105 22.125 -20.125 22.125 C-20.125 22.785 -20.125 23.445 -20.125 24.125 C-22.38293734 25.91328637 -24.64872852 27.5925188 -27 29.25 C-28.39174934 30.25104284 -29.78237375 31.25365152 -31.171875 32.2578125 C-31.85314453 32.74926758 -32.53441406 33.24072266 -33.23632812 33.74707031 C-37.31941291 36.72599101 -41.23103715 39.905108 -45.125 43.125 C-45.63272949 43.54249512 -46.14045898 43.95999023 -46.66357422 44.39013672 C-53.10578501 49.70032353 -59.27127802 55.10951208 -65.1015625 61.09765625 C-66.94055139 62.94019531 -68.82627329 64.63216897 -70.8125 66.3125 C-76.70347101 71.35850345 -82.0655838 76.98235057 -87.51269531 82.49682617 C-89.3769135 84.37939296 -91.25158505 86.25158505 -93.125 88.125 C-92.795 81.525 -92.465 74.925 -92.125 68.125 C-93.115 68.125 -94.105 68.125 -95.125 68.125 C-95.228125 69.259375 -95.33125 70.39375 -95.4375 71.5625 C-95.65800906 73.4177162 -95.88895503 75.27169642 -96.125 77.125 C-96.20057129 77.76840332 -96.27614258 78.41180664 -96.35400391 79.07470703 C-97.54469947 88.79535723 -98.83374328 96.0446474 -106.125 103.125 C-106.99898437 104.00285156 -106.99898437 104.00285156 -107.890625 104.8984375 C-109.04952912 106.05212133 -110.21628442 107.1979703 -111.390625 108.3359375 C-113.8734489 110.89704864 -115.96377677 113.70784919 -118.1171875 116.546875 C-120.94319541 120.17560111 -123.929297 123.65956115 -126.91455078 127.1574707 C-130.84105138 131.76551415 -134.658276 136.45209337 -138.4453125 141.17578125 C-139.27675781 142.14064453 -139.27675781 142.14064453 -140.125 143.125 C-140.455 143.125 -140.785 143.125 -141.125 143.125 C-141.22555982 133.06901799 -141.22445892 123.13792948 -140.125 113.125 C-141.445 113.125 -142.765 113.125 -144.125 113.125 C-144.18034912 114.12877686 -144.23569824 115.13255371 -144.29272461 116.16674805 C-144.4997287 119.90360939 -144.71144543 123.64019159 -144.92456055 127.37670898 C-145.01600916 128.9915459 -145.10619287 130.60645497 -145.19506836 132.22143555 C-145.32330286 134.54756642 -145.456138 136.87339673 -145.58984375 139.19921875 C-145.64772316 140.27607185 -145.64772316 140.27607185 -145.70677185 141.37467957 C-146.08970666 147.89325568 -146.48816036 151.82921336 -150.8125 156.8125 C-153.56132901 160.1130478 -155.97543723 163.34369719 -158.125 167.0625 C-162.56351855 174.73013151 -167.57084034 182.11702031 -174.125 188.125 C-176.105 190.105 -176.105 190.105 -178.125 192.125 C-179.61 181.73 -179.61 181.73 -181.125 171.125 C-182.445 171.125 -183.765 171.125 -185.125 171.125 C-184.97651611 171.9092334 -184.82803223 172.6934668 -184.67504883 173.50146484 C-179.96959602 199.95970878 -179.96959602 199.95970878 -187.25 210.75 C-189.92572013 214.52465398 -192.82403192 217.88730149 -196.125 221.125 C-197.61825866 212.24487669 -198.54702814 203.34318368 -199.3125 194.375 C-199.40837402 193.32256104 -199.50424805 192.27012207 -199.60302734 191.18579102 C-200.40816449 181.27419454 -200.10727994 172.93433458 -195.8125 163.875 C-195.29985596 162.75847046 -195.29985596 162.75847046 -194.77685547 161.61938477 C-191.66412577 154.98220664 -188.23399314 148.51080069 -184.75 142.0625 C-184.22623779 141.0921582 -183.70247559 140.12181641 -183.1628418 139.12207031 C-182.66824463 138.22456055 -182.17364746 137.32705078 -181.6640625 136.40234375 C-181.22271973 135.60046631 -180.78137695 134.79858887 -180.32666016 133.97241211 C-179.125 132.125 -179.125 132.125 -177.125 131.125 C-177.03935791 131.86137695 -176.95371582 132.59775391 -176.86547852 133.35644531 C-176.47551461 136.69628469 -176.08155174 140.03564056 -175.6875 143.375 C-175.55279297 144.53386719 -175.41808594 145.69273437 -175.27929688 146.88671875 C-175.14716797 148.00175781 -175.01503906 149.11679688 -174.87890625 150.265625 C-174.75845947 151.29204102 -174.6380127 152.31845703 -174.51391602 153.37597656 C-174.18624816 155.69207201 -173.74896685 157.87401017 -173.125 160.125 C-171.805 160.125 -170.485 160.125 -169.125 160.125 C-169.08012451 159.3815332 -169.03524902 158.63806641 -168.98901367 157.87207031 C-165.97433426 109.14163599 -165.97433426 109.14163599 -151.21484375 93.390625 C-148.96172579 90.94799244 -146.89051732 88.40539149 -144.8125 85.8125 C-137.84522716 77.2465721 -130.3084366 69.23572592 -122.5625 61.375 C-121.79329224 60.5862146 -121.79329224 60.5862146 -121.00854492 59.78149414 C-119.75278309 58.5227721 -118.44310698 57.31827823 -117.125 56.125 C-116.465 56.125 -115.805 56.125 -115.125 56.125 C-115.1964624 56.66560059 -115.2679248 57.20620117 -115.34155273 57.76318359 C-116.27815304 65.75496088 -116.2381175 73.71805343 -116.1875 81.75 C-116.18247197 83.14973797 -116.17791138 84.5494777 -116.17382812 85.94921875 C-116.16213167 89.34119169 -116.14574086 92.73307233 -116.125 96.125 C-114.475 96.125 -112.825 96.125 -111.125 96.125 C-111.0110791 95.33520752 -110.8971582 94.54541504 -110.77978516 93.73168945 C-103.91611482 47.49240588 -103.91611482 47.49240588 -87.32421875 33.53125 C-85.125 32.125 -85.125 32.125 -82.125 32.125 C-82.125 31.465 -82.125 30.805 -82.125 30.125 C-81.135 30.125 -80.145 30.125 -79.125 30.125 C-79.125 29.465 -79.125 28.805 -79.125 28.125 C-78.135 28.125 -77.145 28.125 -76.125 28.125 C-75.63 26.64 -75.63 26.64 -75.125 25.125 C-72.40234375 23.30078125 -72.40234375 23.30078125 -69.0625 21.4375 C-67.95777344 20.81488281 -66.85304688 20.19226563 -65.71484375 19.55078125 C-64.43287109 18.84501953 -64.43287109 18.84501953 -63.125 18.125 C-61.73477144 22.29568569 -63.20552273 25.34697232 -64.5 29.375 C-66.171288 34.63680234 -67.49999761 39.63079292 -68.125 45.125 C-66.1794003 44.93935176 -66.1794003 44.93935176 -64.125 44.125 C-62.8951853 42.32904526 -62.8951853 42.32904526 -62 40 C-59.76106168 35.1675089 -57.09555446 30.84022742 -54.125 26.4375 C-53.70976074 25.82052246 -53.29452148 25.20354492 -52.86669922 24.56787109 C-52.04103772 23.35129476 -51.20820034 22.13955679 -50.36816406 20.93286133 C-49.53383585 19.71954624 -48.72331105 18.48954261 -47.93652344 17.24487305 C-45.02949994 12.79873292 -42.27559698 10.63756101 -37.375 8.3125 C-36.75810303 8.01899658 -36.14120605 7.72549316 -35.50561523 7.4230957 C-30.76473711 5.24000029 -26.23653863 3.98202444 -21.125 3.125 C-18.7902039 2.46347444 -16.45663378 1.79758667 -14.125 1.125 C-9.42173851 -0.08957852 -4.82301297 -0.02322478 0 0 Z " fill="#FFFFFF" transform="translate(365.125,89.875)"/>
<path d="M0 0 C0.83684326 -0.01853027 1.67368652 -0.03706055 2.53588867 -0.05615234 C8.31027019 0.00295322 11.76584448 1.16117453 16.5 4.5 C20.65521565 12.81043129 16.0724725 23.91114234 13.3984375 32.09375 C4.95336867 56.68722028 -5.85158921 76.56850333 -28.5 90.5 C-25.53 90.995 -25.53 90.995 -22.5 91.5 C-21.91561464 101.50759936 -28.88173221 109.22888436 -34.6328125 116.87890625 C-36.30094435 119.22057251 -37.63503107 121.50696614 -38.9375 124.0625 C-41.90627758 129.64261037 -46.19099618 133.93048451 -50.5 138.5 C-52.00443719 140.16266248 -53.50448335 141.8293092 -55 143.5 C-55.74378906 144.325 -56.48757813 145.15 -57.25390625 146 C-58.74665841 147.66149806 -60.2336916 149.32815278 -61.71484375 151 C-66.36175528 156.22675462 -71.17293133 161.21449182 -76.16015625 166.1171875 C-78.25588276 168.25139981 -80.16306638 170.44260489 -82.0625 172.75 C-88.23742369 179.89155894 -95.42133222 183.33931498 -104.5 185.5 C-103.18 185.83 -101.86 186.16 -100.5 186.5 C-99.92049224 189.72868612 -100.09574946 191.83587412 -101.8125 194.65625 C-117.50277608 215.10964561 -139.39409836 228.47881967 -164.5 233.5 C-159.055 234.49 -159.055 234.49 -153.5 235.5 C-153.005 237.975 -153.005 237.975 -152.5 240.5 C-153.5 241.5 -153.5 241.5 -155.63305664 241.61352539 C-156.54949951 241.60828857 -157.46594238 241.60305176 -158.41015625 241.59765625 C-159.39951172 241.59443359 -160.38886719 241.59121094 -161.40820312 241.58789062 C-162.44912109 241.57951172 -163.49003906 241.57113281 -164.5625 241.5625 C-165.60728516 241.55798828 -166.65207031 241.55347656 -167.72851562 241.54882812 C-170.31903454 241.53699927 -172.90952422 241.51906319 -175.5 241.5 C-170.55 243.975 -170.55 243.975 -165.5 246.5 C-165.5 248.15 -165.5 249.8 -165.5 251.5 C-170.52723067 250.93499834 -174.84054171 249.79884125 -179.5625 248 C-183.89592975 246.35281786 -187.89935122 245.11622084 -192.5 244.5 C-202.87600185 260.78138167 -212.26046498 277.61922518 -219.96875 295.3359375 C-220.25529449 295.99150131 -220.54183899 296.64706512 -220.83706665 297.32249451 C-222.22787579 300.51413592 -223.59425794 303.71307224 -224.92333984 306.9309082 C-227.85072988 313.76828549 -230.25002206 318.32079788 -236.5 322.5 C-237.16 322.5 -237.82 322.5 -238.5 322.5 C-238.70625 323.056875 -238.9125 323.61375 -239.125 324.1875 C-241.05685894 327.43653549 -243.44979805 329.3038546 -246.5 331.5 C-247.82 331.5 -249.14 331.5 -250.5 331.5 C-253.53113801 303.20937857 -222.83076666 265.65668101 -207.8659668 244.44750977 C-205.34385645 241.32526783 -205.34385645 241.32526783 -204.6015625 237.58203125 C-207.86794364 230.01254799 -217.54672339 224.9868387 -224.4453125 221.203125 C-226.5 219.5 -226.5 219.5 -226.8046875 216.796875 C-226.70414063 216.03890625 -226.60359375 215.2809375 -226.5 214.5 C-218.81513055 214.6423124 -214.44721641 217.83241007 -208.5 222.5 C-209.9784912 219.20802953 -211.4579076 215.91647566 -212.9375 212.625 C-213.35837891 211.68785156 -213.77925781 210.75070312 -214.21289062 209.78515625 C-214.61572266 208.88925781 -215.01855469 207.99335938 -215.43359375 207.0703125 C-215.80540771 206.24289551 -216.17722168 205.41547852 -216.56030273 204.56298828 C-217.18240177 203.19724736 -217.82884346 201.84231307 -218.5 200.5 C-218.54022391 198.1670134 -218.54320247 195.83293334 -218.5 193.5 C-217.18 193.5 -215.86 193.5 -214.5 193.5 C-214.5 194.16 -214.5 194.82 -214.5 195.5 C-213.84 195.5 -213.18 195.5 -212.5 195.5 C-210.19 199.79 -207.88 204.08 -205.5 208.5 C-205.665 206.499375 -205.83 204.49875 -206 202.4375 C-206.12490629 200.45882579 -206.24958131 198.48012704 -206.36669922 196.50097656 C-206.49129037 194.63074018 -206.66756063 192.76414719 -206.84765625 190.8984375 C-207.66577382 177.24331148 -201.40562061 166.20314797 -195.40673828 154.30688477 C-194.62677383 152.75262604 -193.86793525 151.18779796 -193.11328125 149.62109375 C-189.06570898 141.2706969 -184.35465621 133.39690743 -179.5 125.5 C-177.125 125.8125 -177.125 125.8125 -174.5 126.5 C-173.51 127.985 -173.51 127.985 -172.5 129.5 C-172.38785156 128.39205078 -172.38785156 128.39205078 -172.2734375 127.26171875 C-169.63823785 106.92934497 -153.51114549 90.75270438 -140.05078125 76.2734375 C-137.99258113 74.03557826 -136.0154647 71.76585207 -134.0625 69.4375 C-131.04141333 65.9555696 -127.75531197 62.81445526 -124.375 59.6875 C-123.87170166 59.21884521 -123.36840332 58.75019043 -122.84985352 58.26733398 C-119.92058673 55.60142627 -117.04953352 53.27776975 -113.5 51.5 C-110.6875 51.8125 -110.6875 51.8125 -108.5 52.5 C-108.17 53.49 -107.84 54.48 -107.5 55.5 C-106.984375 54.345 -106.46875 53.19 -105.9375 52 C-102.36916973 44.87594841 -96.85341615 39.22812365 -90.5 34.5 C-89.84 34.5 -89.18 34.5 -88.5 34.5 C-88.5 33.84 -88.5 33.18 -88.5 32.5 C-83.20588235 28.5 -83.20588235 28.5 -79.5 28.5 C-79.5 27.84 -79.5 27.18 -79.5 26.5 C-78.51 26.5 -77.52 26.5 -76.5 26.5 C-76.5 25.84 -76.5 25.18 -76.5 24.5 C-75.695625 24.37625 -74.89125 24.2525 -74.0625 24.125 C-73.216875 23.91875 -72.37125 23.7125 -71.5 23.5 C-71.17 22.84 -70.84 22.18 -70.5 21.5 C-68.390625 20.4296875 -68.390625 20.4296875 -65.75 19.375 C-64.88890625 19.02179688 -64.0278125 18.66859375 -63.140625 18.3046875 C-60.3754988 17.46206028 -58.36713356 17.11966596 -55.5 17.5 C-54.51 18.985 -54.51 18.985 -53.5 20.5 C-52.84 19.778125 -52.18 19.05625 -51.5 18.3125 C-38.84964113 5.87181558 -17.21247777 0.2363702 0 0 Z M-35.625 14.3125 C-36.80320312 14.79332031 -37.98140625 15.27414063 -39.1953125 15.76953125 C-44.98476748 18.80112529 -48.25292432 23.3030332 -51.875 28.625 C-52.45036499 29.46998047 -52.45036499 29.46998047 -53.03735352 30.33203125 C-59.59261607 39.35085815 -59.59261607 39.35085815 -64.44140625 49.25 C-65.5 51.5 -65.5 51.5 -67.625 52.3125 C-68.24375 52.374375 -68.8625 52.43625 -69.5 52.5 C-67.98342825 45.03545535 -66.42620289 37.70142509 -63.953125 30.48828125 C-63.27541151 28.30856481 -63.27541151 28.30856481 -64.5 25.5 C-66.48535806 26.59299501 -68.46313943 27.69976236 -70.4375 28.8125 C-72.09072266 29.73482422 -72.09072266 29.73482422 -73.77734375 30.67578125 C-76.76512296 32.27518159 -76.76512296 32.27518159 -77.5 35.5 C-78.49 35.5 -79.48 35.5 -80.5 35.5 C-80.5 36.16 -80.5 36.82 -80.5 37.5 C-81.49 37.5 -82.48 37.5 -83.5 37.5 C-83.5 38.16 -83.5 38.82 -83.5 39.5 C-84.35851562 39.65275391 -84.35851562 39.65275391 -85.234375 39.80859375 C-91.70296901 41.7826302 -96.33893178 47.65916977 -99.6315918 53.31176758 C-107.51728246 68.20136241 -111.40122723 86.77450506 -112.5 103.5 C-114.15 103.5 -115.8 103.5 -117.5 103.5 C-117.52500541 99.41065419 -117.54300222 95.32133895 -117.55493164 91.23193359 C-117.55991293 89.84520694 -117.56670039 88.45848541 -117.57543945 87.07177734 C-117.62398542 79.16164008 -117.53835551 71.35497801 -116.5 63.5 C-119.78673738 64.9390084 -121.97727154 66.72010578 -124.51171875 69.24609375 C-125.26525635 69.99560303 -126.01879395 70.7451123 -126.79516602 71.51733398 C-127.97937134 72.71531616 -127.97937134 72.71531616 -129.1875 73.9375 C-129.99823975 74.75355713 -130.80897949 75.56961426 -131.64428711 76.41040039 C-137.32923214 82.18573702 -142.53868746 88.09122203 -147.5 94.5 C-149.03853704 96.35676436 -150.58026881 98.21088565 -152.125 100.0625 C-161.84584425 111.99262703 -166.60654086 121.0605489 -168.125 136.4375 C-168.24979736 137.62577393 -168.37459473 138.81404785 -168.50317383 140.03833008 C-169.43688402 149.18026365 -170.12446285 158.31876415 -170.5 167.5 C-171.82 167.5 -173.14 167.5 -174.5 167.5 C-177.88297872 148.15957447 -177.88297872 148.15957447 -178.5 138.5 C-181.15942085 140.89126052 -182.7196611 143.41948637 -184.42578125 146.55078125 C-184.97266602 147.55286621 -185.51955078 148.55495117 -186.08300781 149.58740234 C-186.65374023 150.65168457 -187.22447266 151.7159668 -187.8125 152.8125 C-188.39483398 153.89740723 -188.97716797 154.98231445 -189.57714844 156.10009766 C-198.92245846 173.67568211 -202.18518205 185.92009817 -200.125 205.6875 C-199.98351399 207.12426443 -199.84288356 208.56111338 -199.703125 209.99804688 C-199.09177901 216.18639909 -198.41161589 222.34733352 -197.5 228.5 C-194.72177135 225.12948964 -192.25944113 221.69848341 -189.9375 218 C-189.06931641 216.62328125 -189.06931641 216.62328125 -188.18359375 215.21875 C-187.62800781 214.3215625 -187.07242188 213.424375 -186.5 212.5 C-185.9627832 211.75983643 -185.42556641 211.01967285 -184.87207031 210.25708008 C-183.10549842 206.70727644 -183.39745303 204.58437637 -183.86328125 200.66796875 C-184.00830078 199.37568359 -184.15332031 198.08339844 -184.30273438 196.75195312 C-184.47227682 195.39708788 -184.64220353 194.04227067 -184.8125 192.6875 C-184.97230901 191.31333685 -185.13052923 189.93898794 -185.28710938 188.56445312 C-185.67581171 185.20747841 -186.08064436 181.85326027 -186.5 178.5 C-185.18 178.5 -183.86 178.5 -182.5 178.5 C-181.015 188.895 -181.015 188.895 -179.5 199.5 C-169.47561312 189.47561312 -161.73595305 178.51407657 -153.984375 166.6953125 C-152.5 164.5 -152.5 164.5 -149.875 161.50390625 C-146.341504 156.56333577 -146.7570101 151.18345862 -146.75 145.3125 C-146.71618631 143.17313365 -146.67973425 141.03380735 -146.640625 138.89453125 C-146.62580078 137.8473291 -146.61097656 136.80012695 -146.59570312 135.72119141 C-146.44441641 130.62915837 -145.98945337 125.56925714 -145.5 120.5 C-144.18 120.5 -142.86 120.5 -141.5 120.5 C-141.5721875 121.15742188 -141.644375 121.81484375 -141.71875 122.4921875 C-142.6306425 131.83908566 -142.59378884 141.12111639 -142.5 150.5 C-134.56099428 142.64441641 -127.41437566 134.25909392 -120.5 125.5 C-111.4750125 114.17575225 -111.4750125 114.17575225 -106.10546875 109.23046875 C-100.87937361 103.59747569 -99.49675131 98.30048622 -98.25 90.9375 C-98.07726562 90.00486328 -97.90453125 89.07222656 -97.7265625 88.11132812 C-96.95922547 83.83920965 -96.40903216 79.8514562 -96.5 75.5 C-95.51 75.5 -94.52 75.5 -93.5 75.5 C-93.83 82.1 -94.16 88.7 -94.5 95.5 C-91.37279873 92.37279873 -88.25002573 89.24243322 -85.13671875 86.1015625 C-83.48704484 84.44264302 -81.83730342 82.78379068 -80.1875 81.125 C-79.37087891 80.3 -78.55425781 79.475 -77.71289062 78.625 C-73.3543801 74.24912489 -68.94146571 70.02110362 -64.23291016 66.02246094 C-62.46011687 64.46496039 -60.82160342 62.82648913 -59.1875 61.125 C-48.65381018 50.44864169 -35.72256622 41.13686414 -23.23046875 32.875 C-22.65941406 32.42125 -22.08835937 31.9675 -21.5 31.5 C-21.5 30.84 -21.5 30.18 -21.5 29.5 C-20.51 29.5 -19.52 29.5 -18.5 29.5 C-18.5 28.84 -18.5 28.18 -18.5 27.5 C-16.85 27.5 -15.2 27.5 -13.5 27.5 C-14.85472306 33.08823264 -19.08113173 36.19001754 -23.5 39.5 C-24.81464089 40.20280975 -26.1432185 40.88245147 -27.5 41.5 C-27.5 42.16 -27.5 42.82 -27.5 43.5 C-28.0878125 43.60441406 -28.675625 43.70882812 -29.28125 43.81640625 C-31.85047977 44.60798232 -33.04051656 45.61122705 -35 47.4375 C-38.59173667 50.70271515 -42.26326609 53.84101816 -46 56.9375 C-46.54076172 57.38665771 -47.08152344 57.83581543 -47.63867188 58.29858398 C-48.92503538 59.36662164 -50.21240755 60.43344425 -51.5 61.5 C-48.23476334 62.58841222 -47.44814392 62.43365543 -44.26171875 61.5390625 C-43.44123047 61.31476563 -42.62074219 61.09046875 -41.77539062 60.859375 C-40.92138672 60.61703125 -40.06738281 60.3746875 -39.1875 60.125 C-33.97613154 58.67363189 -28.86952697 57.25331047 -23.5 56.5 C-24.01049805 58.84765625 -24.01049805 58.84765625 -25.5 61.5 C-28.19135541 62.57984939 -30.53508022 63.29556037 -33.33203125 63.9375 C-34.95282475 64.36194395 -36.57325588 64.7877736 -38.19335938 65.21484375 C-40.73208165 65.85954463 -43.27226564 66.49046906 -45.82104492 67.09423828 C-58.2752675 70.09109302 -65.88492953 74.12047632 -74.18571472 83.97322083 C-76.16648267 86.27423972 -78.32994256 88.37907155 -80.5 90.5 C-81.16644531 91.16644531 -81.83289063 91.83289063 -82.51953125 92.51953125 C-84.1796875 94.1796875 -85.83984375 95.83984375 -87.5 97.5 C-84.54367945 98.97816027 -82.76760781 97.93812449 -79.6171875 97.06640625 C-78.45058594 96.74736328 -77.28398437 96.42832031 -76.08203125 96.09960938 C-74.85871094 95.75736328 -73.63539063 95.41511719 -72.375 95.0625 C-70.52841797 94.55493164 -70.52841797 94.55493164 -68.64453125 94.03710938 C-65.59453546 93.19776945 -62.54653393 92.35180406 -59.5 91.5 C-59.78295898 93.39306641 -59.78295898 93.39306641 -60.5 95.5 C-63.20493423 96.83268975 -65.73454744 97.88008145 -68.5625 98.875 C-69.77184204 99.3244397 -69.77184204 99.3244397 -71.00561523 99.78295898 C-74.25168686 100.98550191 -77.51086121 102.14925512 -80.7734375 103.30615234 C-96.40340521 108.72456916 -96.40340521 108.72456916 -107.5 120.5 C-108.74440954 121.79671879 -110.01842191 123.06534459 -111.3125 124.3125 C-115.50621311 128.38032304 -119.02719894 132.81171857 -122.5 137.5 C-118.72195169 138.75934944 -117.15606162 138.04119294 -113.36328125 136.91796875 C-111.53700195 136.38526367 -111.53700195 136.38526367 -109.67382812 135.84179688 C-108.3866143 135.45738082 -107.09950561 135.07261255 -105.8125 134.6875 C-84.28922981 128.3532248 -84.28922981 128.3532248 -76 127.875 C-74.15921875 127.76285156 -74.15921875 127.76285156 -72.28125 127.6484375 C-71.3634375 127.59945312 -70.445625 127.55046875 -69.5 127.5 C-69.83 128.82 -70.16 130.14 -70.5 131.5 C-75.3192422 132.74706275 -80.13900127 133.99210169 -84.95922852 135.23535156 C-86.59543622 135.65766111 -88.23150687 136.08050203 -89.86743164 136.50390625 C-92.23286782 137.1160179 -94.59880721 137.72615115 -96.96484375 138.3359375 C-98.04353981 138.61574966 -98.04353981 138.61574966 -99.14402771 138.9012146 C-103.56138158 140.03725539 -107.98940273 141.06481584 -112.45289612 142.00430298 C-115.18011502 142.6646868 -117.73156586 143.61376574 -120.328125 144.66796875 C-122.5 145.5 -122.5 145.5 -125.234375 146.30078125 C-131.2501827 148.14617091 -134.55215034 149.8420727 -137.97265625 155.15625 C-139.80953045 157.97498279 -141.90419126 160.48245277 -144.0625 163.0625 C-150.30966565 169.62840176 -150.30966565 169.62840176 -153.5 177.5 C-148.61526757 176.44930264 -143.7669574 175.32939304 -138.93359375 174.0625 C-127.4729037 171.06640239 -116.31957242 168.50814 -104.5 167.5 C-104.5 168.82 -104.5 170.14 -104.5 171.5 C-106.18416016 171.79003906 -106.18416016 171.79003906 -107.90234375 172.0859375 C-109.41408162 172.34884843 -110.92579929 172.61187552 -112.4375 172.875 C-113.17291016 173.00132812 -113.90832031 173.12765625 -114.66601562 173.2578125 C-124.34723194 174.94885465 -133.75829259 177.25694537 -143.18457031 180.05664062 C-144.47863565 180.43567738 -145.7759298 180.80385909 -147.07617188 181.16113281 C-155.80598335 183.56556729 -161.44069439 185.85763583 -166.5 193.5 C-166.97083008 194.15436035 -167.44166016 194.8087207 -167.92675781 195.48291016 C-169.26959078 197.37786031 -170.54783331 199.30221414 -171.8125 201.25 C-172.45541992 202.21873047 -172.45541992 202.21873047 -173.11132812 203.20703125 C-175.09929759 206.22775241 -176.9928501 209.20258918 -178.5 212.5 C-177.50742188 212.24605469 -176.51484375 211.99210938 -175.4921875 211.73046875 C-162.91239392 208.5344622 -150.29248647 205.7191048 -137.5 203.5 C-137.5 205.15 -137.5 206.8 -137.5 208.5 C-138.20640625 208.58636719 -138.9128125 208.67273438 -139.640625 208.76171875 C-149.34725213 210.09089257 -158.71017478 212.37792087 -168.16601562 214.90478516 C-170.22592819 215.43010596 -172.30760831 215.86841816 -174.390625 216.29296875 C-181.22136318 217.85768436 -184.29763904 219.76679418 -188.3125 225.625 C-190.70524883 229.32836075 -190.70524883 229.32836075 -191.5 233.5 C-180.40914897 230.80267822 -169.38697714 227.879098 -158.37548828 224.87475586 C-156.7606958 224.43595093 -156.7606958 224.43595093 -155.11328125 223.98828125 C-154.15204346 223.72571533 -153.19080566 223.46314941 -152.20043945 223.19262695 C-150.4182395 222.73551627 -148.62154563 222.33124156 -146.81469727 221.98413086 C-137.26842743 219.98747934 -128.14475548 212.25208633 -121.5 205.5 C-117.16666667 201.16666667 -112.83333333 196.83333333 -108.5 192.5 C-114.44 192.83 -120.38 193.16 -126.5 193.5 C-127.49 190.035 -127.49 190.035 -128.5 186.5 C-127.7980249 186.37471924 -127.0960498 186.24943848 -126.37280273 186.12036133 C-120.96424194 184.95242107 -115.78852285 182.9851138 -110.5625 181.1875 C-108.81163086 180.6006543 -108.81163086 180.6006543 -107.02539062 180.00195312 C-98.29643689 177.00277415 -92.22310472 173.58147878 -85.8125 166.875 C-83.16551875 164.13051739 -80.6956229 161.63041527 -77.5 159.5 C-77.5 158.51 -77.5 157.52 -77.5 156.5 C-76.96375 156.29375 -76.4275 156.0875 -75.875 155.875 C-72.58021991 153.96749574 -69.90636372 151.45180616 -67.5 148.5 C-67.5 147.84 -67.5 147.18 -67.5 146.5 C-66.84 146.5 -66.18 146.5 -65.5 146.5 C-63.73768755 144.40932506 -62.07868207 142.30783924 -60.4375 140.125 C-57.11378692 135.78220343 -53.76473547 131.60077851 -50 127.625 C-41.96709097 118.89860242 -35.71110704 108.5638614 -29.5 98.5 C-32.3728049 97.2763694 -32.3728049 97.2763694 -34.9375 97.9375 C-40.11995955 98.75578309 -45.26411337 98.57625078 -50.5 98.5 C-49.97731534 95.73723823 -49.39130413 93.1739124 -48.5 90.5 C-47.8090625 90.55800781 -47.118125 90.61601562 -46.40625 90.67578125 C-31.88766583 89.79764108 -18.26050295 74.83354501 -9.20703125 64.7890625 C-7.45151288 62.43498066 -6.4530213 60.26620542 -5.5 57.5 C-4.84 57.5 -4.18 57.5 -3.5 57.5 C0.74871548 48.64850941 3.92888338 39.54629533 6.875 30.1875 C7.23271484 29.07906738 7.59042969 27.97063477 7.95898438 26.82861328 C9.91565321 20.47325372 10.90632656 15.14834313 10.5 8.5 C6.65405075 7.21801692 3.00831991 7.30841196 -1 7.3125 C-1.80864502 7.31330566 -2.61729004 7.31411133 -3.45043945 7.31494141 C-14.7947022 7.43052574 -25.14818953 9.94908113 -35.625 14.3125 Z " fill="#000000" transform="translate(366.5,82.5)"/>
<path d="M0 0 C0.33 0.66 0.66 1.32 1 2 C0.18310547 4.0402832 0.18310547 4.0402832 -1.1328125 6.55078125 C-1.60710693 7.47093018 -2.08140137 8.3910791 -2.57006836 9.33911133 C-3.0831958 10.32032959 -3.59632324 11.30154785 -4.125 12.3125 C-8.2832695 20.42522153 -11.93076777 28.41360538 -15 37 C-17.46742348 43.88607305 -19.63459381 47.20523861 -26 51 C-27 49 -27 49 -26.32592773 46.93481445 C-25.04565816 44.05277141 -23.75781941 41.17649192 -22.4375 38.3125 C-21.95095947 37.25208496 -21.46441895 36.19166992 -20.96313477 35.09912109 C-8.381811 8.381811 -8.381811 8.381811 0 0 Z " fill="#FFFFFF" transform="translate(151,350)"/>
</svg>
